<?xml version="1.0" standalone="no"?><svg xmlns="http://www.w3.org/2000/svg" viewBox="0 0 1440 320"><path fill="#ffe08a" fill-opacity="1" d="M0,128L20,122.7C40,117,80,107,120,133.3C160,160,200,224,240,245.3C280,267,320,245,360,224C400,203,440,181,480,176C520,171,560,181,600,176C640,171,680,149,720,170.7C760,192,800,256,840,240C880,224,920,128,960,117.3C1000,107,1040,181,1080,218.7C1120,256,1160,256,1200,261.3C1240,267,1280,277,1320,272C1360,267,1400,245,1420,234.7L1440,224L1440,0L1420,0C1400,0,1360,0,1320,0C1280,0,1240,0,1200,0C1160,0,1120,0,1080,0C1040,0,1000,0,960,0C920,0,880,0,840,0C800,0,760,0,720,0C680,0,640,0,600,0C560,0,520,0,480,0C440,0,400,0,360,0C320,0,280,0,240,0C200,0,160,0,120,0C80,0,40,0,20,0L0,0Z"></path></svg>